<svg width="120" height="120" xmlns="http://www.w3.org/2000/svg" xmlns:xlink="http://www.w3.org/1999/xlink" overflow="hidden"><defs><clipPath id="clip0"><path d="M0 0 120 0 120 120 0 120Z" fill-rule="evenodd" clip-rule="evenodd"/></clipPath></defs><g clip-path="url(#clip0)"><rect x="0" y="0" width="120" height="120" fill="#FFFFFF" fill-opacity="0"/><path d="M56 100C56 97.2386 58.2386 95 61 95 63.7614 95 66 97.2386 66 100 66 102.761 63.7614 105 61 105 58.2386 105 56 102.761 56 100Z" fill="#818181" fill-rule="evenodd"/><path d="M56 20.5C56 18.0147 58.2386 16 61 16 63.7614 16 66 18.0147 66 20.5 66 22.9853 63.7614 25 61 25 58.2386 25 56 22.9853 56 20.5Z" fill="#818181" fill-rule="evenodd"/><rect x="56" y="20" width="10" height="80" fill="#818181"/><path d="M27.2326 47.3007C29.1071 45.4262 32.1463 45.4262 34.0208 47.3007 35.8953 49.1752 35.8953 52.2144 34.0208 54.0889 32.1463 55.9634 29.1071 55.9634 27.2326 54.0889 25.358 52.2144 25.358 49.1752 27.2326 47.3007Z" fill="#818181" fill-rule="evenodd"/><path d="M57.2417 17.2916 64.0299 24.0798 33.6799 54.4298 26.8917 47.6416Z" fill="#818181" fill-rule="evenodd"/><path d="M56.9008 17.6325C58.7753 15.7579 61.8145 15.7579 63.689 17.6325 65.5635 19.507 65.5635 22.5462 63.689 24.4207 61.8145 26.2952 58.7753 26.2952 56.9008 24.4207 55.0263 22.5462 55.0263 19.507 56.9008 17.6325Z" fill="#818181" fill-rule="evenodd"/><path d="M0 4.8C-6.11104e-16 2.14903 2.14903 -6.11104e-16 4.8-1.22221e-15 7.45097-2.44442e-15 9.6 2.14903 9.6 4.8 9.6 7.45097 7.45097 9.6 4.8 9.6 2.14903 9.6-3.05552e-15 7.45097 0 4.8Z" fill="#818181" fill-rule="evenodd" transform="matrix(-0.707107 0.707107 0.707107 0.707107 91.1566 43.9066)"/><rect x="0" y="0" width="9.6" height="42.9214" fill="#818181" transform="matrix(-0.707107 0.707107 0.707107 0.707107 64.5416 17.2916)"/><path d="M0 4.8C-6.11104e-16 2.14903 2.14903 -6.11104e-16 4.8-1.22221e-15 7.45097-2.44442e-15 9.6 2.14903 9.6 4.8 9.6 7.45097 7.45097 9.6 4.8 9.6 2.14903 9.6-3.05552e-15 7.45097 0 4.8Z" fill="#818181" fill-rule="evenodd" transform="matrix(-0.707107 0.707107 0.707107 0.707107 61.4884 14.2383)"/></g></svg>