<svg width="120" height="120" xmlns="http://www.w3.org/2000/svg" xmlns:xlink="http://www.w3.org/1999/xlink" overflow="hidden"><defs><clipPath id="clip0"><path d="M0 0 120 0 120 120 0 120Z" fill-rule="evenodd" clip-rule="evenodd"/></clipPath></defs><g clip-path="url(#clip0)"><rect x="0" y="0" width="120" height="120" fill="#FFFFFF" fill-opacity="0"/><path d="M55 100C55 97.2386 57.2386 95 60 95 62.7614 95 65 97.2386 65 100 65 102.761 62.7614 105 60 105 57.2386 105 55 102.761 55 100Z" fill="#24316F" fill-rule="evenodd"/><path d="M55 20C55 17.2386 57.2386 15 60 15 62.7614 15 65 17.2386 65 20 65 22.7614 62.7614 25 60 25 57.2386 25 55 22.7614 55 20Z" fill="#24316F" fill-rule="evenodd"/><rect x="55" y="20" width="10" height="80" fill="#24316F"/><path d="M26.3692 47.0169C28.2438 45.1424 31.283 45.1424 33.1575 47.0169 35.032 48.8914 35.032 51.9306 33.1575 53.8051 31.283 55.6797 28.2438 55.6797 26.3692 53.8051 24.4947 51.9306 24.4947 48.8914 26.3692 47.0169Z" fill="#24316F" fill-rule="evenodd"/><path d="M56.3784 17.0078 63.1666 23.796 32.8166 54.146 26.0284 47.3578Z" fill="#24316F" fill-rule="evenodd"/><path d="M56.0375 17.3487C57.912 15.4742 60.9512 15.4742 62.8257 17.3487 64.7002 19.2232 64.7002 22.2624 62.8257 24.1369 60.9512 26.0114 57.912 26.0114 56.0375 24.1369 54.163 22.2624 54.163 19.2232 56.0375 17.3487Z" fill="#24316F" fill-rule="evenodd"/><path d="M0 4.8C-6.11104e-16 2.14903 2.14903 -6.11104e-16 4.8-1.22221e-15 7.45097-2.44442e-15 9.6 2.14903 9.6 4.8 9.6 7.45097 7.45097 9.6 4.8 9.6 2.14903 9.6-3.05552e-15 7.45097 0 4.8Z" fill="#24316F" fill-rule="evenodd" transform="matrix(-0.707107 0.707107 0.707107 0.707107 90.2933 43.6228)"/><rect x="0" y="0" width="9.6" height="42.9214" fill="#24316F" transform="matrix(-0.707107 0.707107 0.707107 0.707107 63.6783 17.0078)"/><path d="M0 4.8C-6.11104e-16 2.14903 2.14903 -6.11104e-16 4.8-1.22221e-15 7.45097-2.44442e-15 9.6 2.14903 9.6 4.8 9.6 7.45097 7.45097 9.6 4.8 9.6 2.14903 9.6-3.05552e-15 7.45097 0 4.8Z" fill="#24316F" fill-rule="evenodd" transform="matrix(-0.707107 0.707107 0.707107 0.707107 60.6251 13.9546)"/></g></svg>