<svg width="120" height="120" xmlns="http://www.w3.org/2000/svg" xmlns:xlink="http://www.w3.org/1999/xlink" overflow="hidden"><defs><clipPath id="clip0"><path d="M0 0 120 0 120 120 0 120Z" fill-rule="evenodd" clip-rule="evenodd"/></clipPath></defs><g clip-path="url(#clip0)"><rect x="0" y="0" width="120" height="120" fill="#FFFFFF" fill-opacity="0"/><path d="M0 5C-6.36567e-16 2.23858 2.23858 -6.36567e-16 5-1.27313e-15 7.76142-2.54627e-15 10 2.23858 10 5 10 7.76142 7.76142 10 5 10 2.23858 10-3.18283e-15 7.76142 0 5Z" fill="#818181" fill-rule="evenodd" transform="matrix(1 0 0 -1 55 80)"/><path d="M0 4.8C-6.11104e-16 2.14903 2.14903 -6.11104e-16 4.8-1.22221e-15 7.45097-2.44442e-15 9.6 2.14903 9.6 4.8 9.6 7.45097 7.45097 9.6 4.8 9.6 2.14903 9.6-3.05552e-15 7.45097 0 4.8Z" fill="#818181" fill-rule="evenodd" transform="matrix(0.707107 -0.707107 -0.707107 -0.707107 29.6667 51.6148)"/><rect x="0" y="0" width="9.6" height="42.9214" fill="#818181" transform="matrix(0.707107 -0.707107 -0.707107 -0.707107 56.2817 78.2298)"/><path d="M0 4.8C-6.11104e-16 2.14903 2.14903 -6.11104e-16 4.8-1.22221e-15 7.45097-2.44442e-15 9.6 2.14903 9.6 4.8 9.6 7.45097 7.45097 9.6 4.8 9.6 2.14903 9.6-3.05552e-15 7.45097 0 4.8Z" fill="#818181" fill-rule="evenodd" transform="matrix(0.707107 -0.707107 -0.707107 -0.707107 59.3349 81.283)"/><path d="M93.5908 48.2207C91.7162 50.0952 88.677 50.0952 86.8025 48.2207 84.928 46.3462 84.928 43.307 86.8025 41.4324 88.677 39.5579 91.7162 39.5579 93.5908 41.4324 95.4653 43.307 95.4653 46.3462 93.5908 48.2207Z" fill="#818181" fill-rule="evenodd"/><path d="M63.5816 78.2298 56.7934 71.4416 87.1434 41.0916 93.9316 47.8798Z" fill="#818181" fill-rule="evenodd"/><path d="M63.9225 77.8889C62.048 79.7634 59.0088 79.7634 57.1343 77.8889 55.2598 76.0144 55.2598 72.9752 57.1343 71.1007 59.0088 69.2262 62.048 69.2262 63.9225 71.1007 65.797 72.9752 65.797 76.0144 63.9225 77.8889Z" fill="#818181" fill-rule="evenodd"/></g></svg>