<svg width="120" height="120" xmlns="http://www.w3.org/2000/svg" xmlns:xlink="http://www.w3.org/1999/xlink" overflow="hidden"><defs><clipPath id="clip0"><path d="M0 0 120 0 120 120 0 120Z" fill-rule="evenodd" clip-rule="evenodd"/></clipPath></defs><g clip-path="url(#clip0)"><rect x="0" y="0" width="120" height="120" fill="#FFFFFF" fill-opacity="0"/><path d="M0 5C-6.36567e-16 2.23858 2.23858 -6.36567e-16 5-1.27313e-15 7.76142-2.54627e-15 10 2.23858 10 5 10 7.76142 7.76142 10 5 10 2.23858 10-3.18283e-15 7.76142 0 5Z" fill-rule="evenodd" transform="matrix(1 0 0 -1 55 80)"/><path d="M0 4.8C-6.11104e-16 2.14903 2.14903 -6.11104e-16 4.8-1.22221e-15 7.45097-2.44442e-15 9.6 2.14903 9.6 4.8 9.6 7.45097 7.45097 9.6 4.8 9.6 2.14903 9.6-3.05552e-15 7.45097 0 4.8Z" fill-rule="evenodd" transform="matrix(0.707107 -0.707107 -0.707107 -0.707107 29.6666 51.6147)"/><rect x="0" y="0" width="9.6" height="42.9214" transform="matrix(0.707107 -0.707107 -0.707107 -0.707107 56.2816 78.2297)"/><path d="M0 4.8C-6.11104e-16 2.14903 2.14903 -6.11104e-16 4.8-1.22221e-15 7.45097-2.44442e-15 9.6 2.14903 9.6 4.8 9.6 7.45097 7.45097 9.6 4.8 9.6 2.14903 9.6-3.05552e-15 7.45097 0 4.8Z" fill-rule="evenodd" transform="matrix(0.707107 -0.707107 -0.707107 -0.707107 59.3348 81.2829)"/><path d="M93.5906 48.2206C91.7161 50.0951 88.6769 50.0951 86.8024 48.2206 84.9279 46.3461 84.9279 43.3069 86.8024 41.4323 88.6769 39.5578 91.7161 39.5578 93.5906 41.4323 95.4652 43.3069 95.4652 46.3461 93.5906 48.2206Z" fill-rule="evenodd"/><path d="M63.5815 78.2297 56.7933 71.4415 87.1433 41.0915 93.9315 47.8797Z" fill-rule="evenodd"/><path d="M63.9224 77.8888C62.0479 79.7633 59.0087 79.7633 57.1342 77.8888 55.2597 76.0143 55.2597 72.9751 57.1342 71.1006 59.0087 69.2261 62.0479 69.2261 63.9224 71.1006 65.7969 72.9751 65.7969 76.0143 63.9224 77.8888Z" fill-rule="evenodd"/></g></svg>