<svg width="96" height="96" xmlns="http://www.w3.org/2000/svg" xmlns:xlink="http://www.w3.org/1999/xlink" overflow="hidden"><defs><clipPath id="clip0"><path d="M0 0 96 0 96 96 0 96Z" fill-rule="evenodd" clip-rule="evenodd"/></clipPath><clipPath id="clip1"><path d="M24 34 72 34 72 61 24 61Z" fill-rule="evenodd" clip-rule="evenodd"/></clipPath><clipPath id="clip2"><path d="M24 34 72 34 72 61 24 61Z" fill-rule="evenodd" clip-rule="evenodd"/></clipPath><clipPath id="clip3"><path d="M17 23 79 23 79 84 17 84Z" fill-rule="evenodd" clip-rule="evenodd"/></clipPath></defs><g clip-path="url(#clip0)"><path d="M0 0 96 0 96 96 0 96Z" fill="#FFFFFF" fill-rule="evenodd" fill-opacity="0"/><g clip-path="url(#clip1)"><g clip-path="url(#clip2)"><g clip-path="url(#clip3)"><path d="M46.7299 11.496C45.4214 10.1818 43.2931 10.177 41.9789 11.4864L24 29.3914 6.02112 11.4854C4.70688 10.177 2.58048 10.1808 1.26912 11.495-0.04032 12.8102-0.03552 14.9366 1.27872 16.247L21.6163 36.5021C21.6173 36.5021 21.6173 36.503 21.6182 36.504 21.6192 36.505 21.6192 36.505 21.6202 36.5059L21.6278 36.5136C21.7056 36.5904 21.7939 36.649 21.8765 36.7162 21.9677 36.791 22.0541 36.8755 22.151 36.9389 22.2643 37.0138 22.3872 37.0675 22.5072 37.127 22.584 37.1645 22.656 37.2144 22.7338 37.2461 22.8883 37.3085 23.0486 37.3478 23.209 37.3872 23.2589 37.3987 23.3059 37.4208 23.3558 37.4304 23.568 37.4717 23.783 37.4918 23.9981 37.4918 24.2131 37.4918 24.4282 37.4717 24.6403 37.4304 24.6979 37.4189 24.7517 37.3949 24.8093 37.3805 24.9619 37.3421 25.1155 37.3056 25.2634 37.2451 25.3334 37.2173 25.3978 37.1722 25.4659 37.1395 25.5946 37.0771 25.7261 37.0186 25.847 36.9379 25.9238 36.887 25.9901 36.8189 26.064 36.7603 26.1667 36.6797 26.2752 36.6067 26.3693 36.5117L46.7184 16.2451C48.0355 14.9376 48.0394 12.8102 46.7299 11.496Z" fill="#24316F" transform="matrix(1.01053 0 -0 1 23.7472 23.5)"/></g></g></g></g></svg>