<svg width="120" height="120" xmlns="http://www.w3.org/2000/svg" xmlns:xlink="http://www.w3.org/1999/xlink" overflow="hidden"><defs><clipPath id="clip0"><path d="M0 0 120 0 120 120 0 120Z" fill-rule="evenodd" clip-rule="evenodd"/></clipPath><clipPath id="clip1"><path d="M33 0 87 0 87 120 33 120Z" fill-rule="evenodd" clip-rule="evenodd"/></clipPath><clipPath id="clip2"><path d="M33 0 87 0 87 120 33 120Z" fill-rule="evenodd" clip-rule="evenodd"/></clipPath><clipPath id="clip3"><path d="M33 0 90 0 90 120 33 120Z" fill-rule="evenodd" clip-rule="evenodd"/></clipPath></defs><g clip-path="url(#clip0)"><rect x="0" y="0" width="120" height="120" fill="#FFFFFF" fill-opacity="0"/><g clip-path="url(#clip1)"><g clip-path="url(#clip2)"><g clip-path="url(#clip3)"><path d="M683.617 2.34754e-12C683.596 0.37611 683.557 0.753834 683.557 1.13156 683.554 7.23003 683.54 13.3285 683.576 19.427 683.581 20.276 683.333 20.4875 682.536 20.4811 679.315 20.4455 676.093 20.4488 672.872 20.5133 671.777 20.5327 670.673 20.7087 669.594 20.9169 667.563 21.3124 666.081 23.0089 665.995 25.364 665.837 29.6578 665.856 33.9564 665.782 38.2518 665.768 39.0347 666.277 38.9024 666.718 38.9024 671.963 38.9056 677.21 38.904 682.456 38.904L683.645 38.904C682.94 45.8015 682.25 52.5376 681.554 59.3463L665.806 59.3463 665.806 60.6247C665.799 79.6466 665.793 98.6684 665.785 117.692 665.785 118.039 665.765 118.386 665.756 118.733L644.21 118.733C644.218 116.962 644.23 115.193 644.23 113.422 644.232 95.9113 644.232 78.3988 644.232 60.8862L644.232 59.3754 629.875 59.3754C629.851 58.9589 629.82 58.6522 629.82 58.3471 629.817 52.2147 629.834 46.0807 629.801 39.95 629.795 39.1009 630.042 38.8862 630.843 38.8927 634.955 38.9314 639.068 38.8814 643.18 38.9282 644.056 38.9379 644.243 38.6376 644.247 37.7918 644.271 32.2938 644.244 26.791 644.437 21.2978 644.575 17.2994 645.387 13.4076 647.187 9.795 649.164 5.83051 652.235 3.12833 656.316 1.79338 658.579 1.05246 660.972 0.736078 663.306 0.225989 663.632 0.154964 663.956 0.0758677 664.282 2.34754e-12L683.617 2.34754e-12Z" fill="#FFFFFF" fill-rule="evenodd" transform="matrix(1 0 -0 1.01067 -596.801 0)"/></g></g></g></g></svg>