<svg width="120" height="120" xmlns="http://www.w3.org/2000/svg" xmlns:xlink="http://www.w3.org/1999/xlink" overflow="hidden"><defs><clipPath id="clip0"><path d="M0 0 120 0 120 120 0 120Z" fill-rule="evenodd" clip-rule="evenodd"/></clipPath><clipPath id="clip1"><path d="M33 0 87 0 87 120 33 120Z" fill-rule="evenodd" clip-rule="evenodd"/></clipPath><clipPath id="clip2"><path d="M33 0 87 0 87 120 33 120Z" fill-rule="evenodd" clip-rule="evenodd"/></clipPath><clipPath id="clip3"><path d="M33 0 90 0 90 120 33 120Z" fill-rule="evenodd" clip-rule="evenodd"/></clipPath></defs><g clip-path="url(#clip0)"><rect x="0" y="0" width="120" height="120" fill="#FFFFFF" fill-opacity="0"/><g clip-path="url(#clip1)"><g clip-path="url(#clip2)"><g clip-path="url(#clip3)"><path d="M683.295 0C683.295 0.516084 683.295 0.516084 683.295 1.03217 683.295 7.22517 683.295 13.4182 683.295 19.0951 683.295 20.1273 683.295 20.1273 682.263 20.1273 679.166 20.1273 676.07 20.1273 672.457 20.1273 671.425 20.1273 670.393 20.1273 669.36 20.6433 667.296 21.1594 665.748 22.7077 665.748 25.2881 665.748 29.4168 665.748 34.0615 665.748 38.1902 665.748 39.2224 666.264 38.7063 666.78 38.7063 671.941 38.7063 677.102 38.7063 682.263 38.7063L683.295 38.7063C682.779 45.4154 681.747 52.1245 681.23 59.3496L665.748 59.3496 665.748 60.3818C665.748 79.4769 665.748 98.572 665.748 117.667 665.748 118.183 665.748 118.183 665.748 118.699L644.072 118.699C644.072 117.151 644.072 115.087 644.072 113.538 644.072 95.9916 644.072 78.4447 644.072 60.8979L644.072 59.3496 629.622 59.3496C629.622 58.8335 629.622 58.8335 629.622 58.3175 629.622 52.1245 629.622 45.9314 629.622 39.7384 629.622 38.7063 629.622 38.7063 630.654 38.7063 634.783 38.7063 638.912 38.7063 643.04 38.7063 644.072 38.7063 644.072 38.1902 644.072 37.6741 644.072 31.9972 644.072 26.8363 644.072 21.1594 644.072 17.0308 645.105 13.4182 646.653 9.80559 648.717 5.67692 651.814 3.0965 655.942 1.54825 658.007 1.03217 660.587 0.516084 663.168-1.69026e-14 663.684-1.69026e-14 663.684-1.69026e-14 664.2-1.69026e-14L683.295-1.69026e-14Z" fill="#24316F" fill-rule="evenodd" transform="matrix(1 0 -0 1.01096 -596.622 0)"/></g></g></g></g></svg>