<svg width="120" height="120" xmlns="http://www.w3.org/2000/svg" xmlns:xlink="http://www.w3.org/1999/xlink" overflow="hidden"><defs><clipPath id="clip0"><path d="M0 0 120 0 120 120 0 120Z" fill-rule="evenodd" clip-rule="evenodd"/></clipPath><clipPath id="clip1"><path d="M1 0 119 0 119 120 1 120Z" fill-rule="evenodd" clip-rule="evenodd"/></clipPath><clipPath id="clip2"><path d="M1 0 119 0 119 120 1 120Z" fill-rule="evenodd" clip-rule="evenodd"/></clipPath><clipPath id="clip3"><path d="M1 0 121 0 121 120 1 120Z" fill-rule="evenodd" clip-rule="evenodd"/></clipPath></defs><g clip-path="url(#clip0)"><rect x="0" y="0" width="120" height="120" fill="#FFFFFF" fill-opacity="0"/><g clip-path="url(#clip1)"><g clip-path="url(#clip2)"><g clip-path="url(#clip3)"><path d="M0.0379358 59.52C0.0379358 51.0353-0.0622384 42.5471 0.0629793 34.0657 0.209901 24.3219 3.91467 16.0751 10.8901 9.36761 15.2644 5.16152 20.4351 2.38165 26.3053 0.946984 28.9382 0.303918 31.6145 0.0102339 34.3242 0.0102339 50.9648 0.0136096 67.6037-0.0285863 84.2426 0.0372393 91.163 0.0642448 97.5007 2.19261 103.154 6.22823 110.568 11.5213 115.235 18.6946 117.15 27.6722 117.607 29.8107 117.833 31.983 117.833 34.1721 117.839 51.1045 117.883 68.0385 117.816 84.9709 117.786 92.8244 115.22 99.8475 110.4 106.005 106.622 110.834 101.873 114.378 96.2218 116.67 93.1414 117.919 89.9442 118.697 86.6351 118.957 85.4614 119.05 84.2827 119.097 83.1073 119.099 66.8357 119.107 50.5641 119.123 34.2925 119.097 26.1166 119.086 18.8256 116.451 12.523 111.195 6.31552 106.02 2.39036 99.402 0.720789 91.437 0.236614 89.1264 0.0312575 86.782 0.0329271 84.4173 0.0362662 76.1182 0.0345966 67.8191 0.0345966 59.52L0.0379358 59.52ZM31.4274 61.2996C31.4335 76.6873 43.6892 89.0769 58.9132 89.0851 74.1473 89.0953 86.4375 76.673 86.4253 61.2812 86.4132 45.8813 74.1716 33.508 58.9395 33.4998 43.6913 33.4896 31.4213 45.8894 31.4274 61.2996ZM91.2878 17.3922C94.9594 17.4035 97.9455 20.3324 97.9422 23.9194 97.9373 27.5129 94.9184 30.4466 91.237 30.4354 87.5573 30.421 84.5581 27.4648 84.5827 23.8682 84.6056 20.2827 87.6114 17.381 91.2878 17.3922" fill="#818181" fill-rule="evenodd" transform="matrix(1 0 -0 1.00746 1 0)"/></g></g></g></g></svg>