<svg width="120" height="120" xmlns="http://www.w3.org/2000/svg" xmlns:xlink="http://www.w3.org/1999/xlink" overflow="hidden"><defs><clipPath id="clip0"><path d="M0 0 120 0 120 120 0 120Z" fill-rule="evenodd" clip-rule="evenodd"/></clipPath><clipPath id="clip1"><path d="M1 0 119 0 119 120 1 120Z" fill-rule="evenodd" clip-rule="evenodd"/></clipPath><clipPath id="clip2"><path d="M1 0 119 0 119 120 1 120Z" fill-rule="evenodd" clip-rule="evenodd"/></clipPath><clipPath id="clip3"><path d="M1 0 121 0 121 120 1 120Z" fill-rule="evenodd" clip-rule="evenodd"/></clipPath></defs><g clip-path="url(#clip0)"><rect x="0" y="0" width="120" height="120" fill="#FFFFFF" fill-opacity="0"/><g clip-path="url(#clip1)"><g clip-path="url(#clip2)"><g clip-path="url(#clip3)"><path d="M0 59.8116C0 51.49 0 42.6483 0 34.3267 0 24.4448 3.64071 16.1231 10.9221 9.36182 15.0829 5.20101 20.2839 2.60051 26.5252 1.0402 29.1257 0.520101 31.7262 0 34.3267 0 50.9699 0 67.6132 0 84.2564 0 91.0177 0 97.779 2.0804 103.5 6.24122 110.782 11.4422 115.462 18.7236 117.543 27.5654 118.063 29.6458 118.063 31.7262 118.063 34.3267 118.063 51.49 118.063 68.1333 118.063 85.2966 118.063 93.0981 115.462 100.38 110.782 106.621 107.141 111.302 102.46 114.942 96.7388 117.543 93.6182 118.583 90.4976 119.623 86.8569 119.623 85.8167 119.623 84.2564 119.623 83.2162 119.623 67.0931 119.623 50.4498 119.623 34.3267 119.623 26.0051 119.623 18.7236 117.023 12.4824 111.822 6.24122 106.621 2.0804 99.8594 0.520101 92.0579 0 89.4574 0 87.377 0 84.7765 0 76.4549 0 68.1333 0 59.8116L0 59.8116ZM31.7262 61.3719C31.7262 76.975 44.2086 89.4574 59.2915 89.4574 74.3745 89.4574 86.8569 76.975 86.8569 61.3719 86.8569 45.7689 74.3745 33.2865 59.2915 33.2865 43.6885 33.8066 31.7262 46.289 31.7262 61.3719ZM91.5378 17.6834C95.1785 17.6834 98.2991 20.8041 98.2991 24.4448 98.2991 28.0855 95.1785 31.2061 91.5378 31.2061 87.8971 31.2061 84.7765 28.0855 84.7765 24.4448 84.7765 20.2839 87.8971 17.6834 91.5378 17.6834" fill="#24316F" fill-rule="evenodd" transform="matrix(1 0 -0 1.00315 1 0)"/></g></g></g></g></svg>