<svg width="120" height="120" xmlns="http://www.w3.org/2000/svg" xmlns:xlink="http://www.w3.org/1999/xlink" overflow="hidden"><defs><clipPath id="clip0"><path d="M0 0 120 0 120 120 0 120Z" fill-rule="evenodd" clip-rule="evenodd"/></clipPath></defs><g clip-path="url(#clip0)"><rect x="0" y="0" width="120" height="120" fill="#FFFFFF" fill-opacity="0"/><path d="M49.1804 59.2242C50.2356 58.169 51.9464 58.169 53.0017 59.2242L60.644 66.8665C61.6992 67.9217 61.6992 69.6326 60.644 70.6878L50.8888 80.443C49.8336 81.4982 48.1227 81.4982 47.0675 80.443L39.4252 72.8007C38.37 71.7454 38.37 70.0346 39.4252 68.9794Z" stroke="#24316F" stroke-width="1.33333" stroke-miterlimit="8" fill="#FFFFFF" fill-rule="evenodd"/><path d="M69.8013 43.2785 76.5896 50.0667 30.2677 96.3886 23.4795 89.6003Z" stroke="#24316F" stroke-width="1.33333" stroke-miterlimit="8" fill="#FFFFFF" fill-rule="evenodd"/><path d="M0 25C-3.24649e-15 11.1929 11.4167-3.18283e-15 25.5-6.36567e-15 39.5833-1.27313e-14 51 11.1929 51 25 51 38.8071 39.5833 50 25.5 50 11.4167 50-1.62325e-14 38.8071 0 25Z" stroke="#FFFFFF" stroke-width="9.66667" stroke-miterlimit="8" fill="none" fill-rule="evenodd" transform="matrix(-1 -8.74228e-08 -8.74228e-08 1 115 5)"/><path d="M48.8062 59.5982 60.2698 71.0618 32.1056 99.226 20.642 87.7624Z" stroke="#24316F" stroke-width="1.33333" stroke-miterlimit="8" fill="#FFFFFF" fill-rule="evenodd"/><path d="M0 10C-1.20948e-15 4.47715 4.25329-1.27313e-15 9.5-2.54627e-15 14.7467-5.09253e-15 19 4.47715 19 10 19 15.5228 14.7467 20 9.5 20 4.25329 20-6.04738e-15 15.5228 0 10Z" fill="#FFFFFF" fill-rule="evenodd" transform="matrix(-1 -8.74228e-08 -8.74228e-08 1 99 20)"/></g></svg>