<svg width="120" height="120" xmlns="http://www.w3.org/2000/svg" xmlns:xlink="http://www.w3.org/1999/xlink" overflow="hidden"><defs><clipPath id="clip0"><path d="M0 0 120 0 120 120 0 120Z" fill-rule="evenodd" clip-rule="evenodd"/></clipPath><clipPath id="clip1"><path d="M0 18 120 18 120 102 0 102Z" fill-rule="evenodd" clip-rule="evenodd"/></clipPath><clipPath id="clip2"><path d="M0 18 121 18 121 102 0 102Z" fill-rule="evenodd" clip-rule="evenodd"/></clipPath><clipPath id="clip3"><path d="M-3 14 121 14 121 102-3 102Z" fill-rule="evenodd" clip-rule="evenodd"/></clipPath></defs><g clip-path="url(#clip0)"><rect x="0" y="0" width="120" height="120" fill="#FFFFFF" fill-opacity="0"/><g clip-path="url(#clip1)"><g clip-path="url(#clip2)"><g clip-path="url(#clip3)"><path d="M769.028 16.8093C771.702 25.9781 771.702 45.4616 771.702 45.4616 771.702 45.4616 771.702 64.9452 769.028 74.1139 767.499 79.0803 763.679 83.2827 758.331 84.8108 749.162 87.485 711.723 87.485 711.723 87.485 711.723 87.485 674.284 87.485 665.115 84.8108 660.149 83.2827 655.946 79.4624 654.418 74.1139 651.744 64.9452 651.744 45.4616 651.744 45.4616 651.744 45.4616 651.744 25.9781 654.418 16.8093 655.946 11.8429 659.767 7.64061 665.115 6.11249 674.666 3.82031 712.105 3.82031 712.105 3.82031 712.105 3.82031 749.544 3.82031 758.713 6.49452 763.679 7.64061 767.881 11.4609 769.028 16.8093ZM697.97 61.889 729.296 44.3155 697.97 26.7421 697.97 61.889Z" fill="#24316F" fill-rule="evenodd" transform="matrix(1.00059 0 -0 1 -652.156 14.133)"/></g></g></g></g></svg>