<svg width="120" height="120" xmlns="http://www.w3.org/2000/svg" xmlns:xlink="http://www.w3.org/1999/xlink" overflow="hidden"><defs><clipPath id="clip0"><path d="M0 0 120 0 120 120 0 120Z" fill-rule="evenodd" clip-rule="evenodd"/></clipPath><clipPath id="clip1"><path d="M0 18 120 18 120 102 0 102Z" fill-rule="evenodd" clip-rule="evenodd"/></clipPath><clipPath id="clip2"><path d="M-1 18 120 18 120 102-1 102Z" fill-rule="evenodd" clip-rule="evenodd"/></clipPath><clipPath id="clip3"><path d="M-3 14 120 14 120 102-3 102Z" fill-rule="evenodd" clip-rule="evenodd"/></clipPath></defs><g clip-path="url(#clip0)"><rect x="0" y="0" width="120" height="120" fill="#FFFFFF" fill-opacity="0"/><g clip-path="url(#clip1)"><g clip-path="url(#clip2)"><g clip-path="url(#clip3)"><path d="M765.305 16.6203C767.79 25.8789 767.79 45.197 767.79 45.197 767.79 45.197 767.79 64.5145 765.305 73.7737 763.937 78.8823 759.907 82.905 754.79 84.2709 745.515 86.7515 708.323 86.7515 708.323 86.7515 708.323 86.7515 671.131 86.7515 661.856 84.2709 656.739 82.905 652.709 78.8823 651.341 73.7737 648.856 64.5145 648.856 45.197 648.856 45.197 648.856 45.197 648.856 25.8789 651.341 16.6203 652.709 11.5118 656.739 7.48904 661.856 6.12377 671.131 3.64257 708.323 3.64257 708.323 3.64257 708.323 3.64257 745.515 3.64257 754.79 6.12377 759.907 7.48904 763.937 11.5118 765.305 16.6203ZM694.467 61.5269 725.552 43.9882 694.467 26.4482 694.467 61.5269Z" fill="#818181" fill-rule="evenodd" transform="matrix(1.00588 0 -0 1 -652.305 14.5783)"/></g></g></g></g></svg>